<svg version="1.1" id="Ebene_1" xmlns="http://www.w3.org/2000/svg" xmlns:xlink="http://www.w3.org/1999/xlink" x="0px" y="0px"
	 width="81px" height="22px" viewBox="0 0 81 22" enable-background="new 0 0 81 22" xml:space="preserve">
<path fill-rule="evenodd" clip-rule="evenodd" fill="#222328" d="M0,20.766v-2.406c1.219,0.854,2.531,1.281,3.938,1.281
	c1.447,0,2.492-0.356,3.133-1.07s0.961-1.883,0.961-3.508V0.281h2.312V15.25c0,1.303-0.184,2.414-0.547,3.336
	c-0.365,0.922-0.863,1.606-1.492,2.055c-0.631,0.448-1.277,0.766-1.938,0.953c-0.662,0.188-1.373,0.281-2.133,0.281
	C2.703,21.875,1.291,21.506,0,20.766"/>
<path fill-rule="evenodd" clip-rule="evenodd" fill="#222328" d="M15.703,12.859V0.281h2.312v12.703
	c0,4.521,2.121,6.781,6.367,6.781c4.244,0,6.367-2.26,6.367-6.781V0.281h2.312v12.578c0,2.927-0.75,5.162-2.25,6.703
	c-1.5,1.542-3.646,2.312-6.438,2.312c-2.793,0-4.936-0.773-6.43-2.32C16.449,18.008,15.703,15.776,15.703,12.859"/>
<polygon fill-rule="evenodd" clip-rule="evenodd" fill="#222328" points="38.484,21.625 38.484,0.281 41.109,0.281 53.844,18.266
	53.844,0.281 56.156,0.281 56.156,21.625 53.562,21.625 40.797,3.641 40.797,21.625 "/>
<path fill-rule="evenodd" clip-rule="evenodd" fill="#222328" d="M60.844,10.938C60.844,3.646,64.143,0,70.742,0
	c6.609,0,9.914,3.646,9.914,10.938c0,7.292-3.305,10.938-9.914,10.938C64.143,21.875,60.844,18.229,60.844,10.938 M64.982,4.281
	c-1.219,1.406-1.826,3.625-1.826,6.656s0.607,5.25,1.826,6.656c1.217,1.406,3.137,2.109,5.76,2.109c2.643,0,4.57-0.703,5.783-2.109
	c1.211-1.406,1.818-3.625,1.818-6.656s-0.607-5.25-1.818-6.656c-1.213-1.406-3.141-2.109-5.783-2.109
	C68.119,2.172,66.199,2.875,64.982,4.281"/>
</svg>
